<svg width="311" height="269" viewBox="0 0 311 269" fill="none" xmlns="http://www.w3.org/2000/svg">
<path d="M267.135 54.7759C267.135 54.7759 263.236 58.6746 270.477 88.1936C277.717 117.713 294.148 140.269 294.148 140.269C294.148 140.269 315.312 122.447 308.907 91.8138C302.781 61.1809 267.135 54.7759 267.135 54.7759Z" fill="#22272E"/>
<path d="M271.314 141.662C271.314 141.662 265.744 143.333 252.655 156.978C239.567 170.624 220.352 177.586 197.516 187.89C174.681 198.193 163.542 150.295 169.39 126.067C174.959 101.839 200.023 85.1302 200.023 85.1302L248.757 91.8137C248.757 91.8137 264.909 72.5985 271.314 85.1302C277.44 97.6618 276.883 125.788 271.314 141.662Z" fill="#F4C2C9"/>
<path d="M229.541 230.497L63.566 268.649C56.3255 270.32 49.085 265.864 47.4141 258.624L0.350761 54.7759C-1.32013 47.5354 3.1355 40.2949 10.376 38.624L176.351 0.472094C183.591 -1.19879 190.832 3.25692 192.503 10.4974L239.287 214.345C241.237 221.586 236.781 228.826 229.541 230.497Z" fill="#22272E"/>
<path d="M159.642 58.9531L51.5916 83.7378C47.9714 84.5733 44.6295 82.3454 43.794 78.7251C42.9586 75.1049 45.1866 71.7631 48.8068 70.9277L156.857 46.1429C160.478 45.3075 163.819 47.5353 164.655 51.1555C165.212 54.4973 162.984 58.1176 159.642 58.9531Z" fill="#FFE779"/>
<path d="M51.313 112.421L172.174 84.5734" stroke="#63737A" stroke-width="1.8" stroke-miterlimit="10" stroke-linecap="round" stroke-linejoin="round"/>
<path d="M56.0469 132.75L176.908 104.902" stroke="#63737A" stroke-width="1.8" stroke-miterlimit="10" stroke-linecap="round" stroke-linejoin="round"/>
<path d="M128.175 212.953L83.6177 223.257C79.9975 224.092 76.6555 221.864 75.8201 218.244L65.5164 173.687C64.681 170.067 66.9088 166.725 70.5291 165.89L115.086 155.586C118.706 154.75 122.048 156.978 122.883 160.599L133.187 205.156C133.744 208.497 131.516 212.118 128.175 212.953Z" fill="#FFE779"/>
<path d="M139.312 149.738L184.705 139.155" stroke="#63737A" stroke-width="1.8" stroke-miterlimit="10" stroke-linecap="round" stroke-linejoin="round"/>
<path d="M144.325 171.738L189.996 161.434" stroke="#63737A" stroke-width="1.8" stroke-miterlimit="10" stroke-linecap="round" stroke-linejoin="round"/>
<path d="M149.338 194.017L176.908 187.611" stroke="#63737A" stroke-width="1.8" stroke-miterlimit="10" stroke-linecap="round" stroke-linejoin="round"/>
<path d="M124.552 18.8518L65.5146 32.4974C61.3374 33.3329 57.7171 29.7126 58.5526 25.5354L59.1094 22.7506C59.6663 20.5228 61.3373 18.8519 63.5652 18.2949L120.097 5.20626C122.325 4.64929 124.552 5.48477 125.945 7.15566L127.616 9.38347C130.401 13.0037 128.73 18.0164 124.552 18.8518Z" fill="#6DAFA7"/>
<path d="M252.654 74.8267C252.654 74.8267 245.692 78.447 232.325 74.8267C218.958 71.2065 216.73 67.8647 202.806 64.2445C188.882 60.6242 169.667 64.5229 166.325 70.371C162.983 76.2191 171.895 79.8394 183.869 81.2318C195.844 82.6242 201.414 105.46 220.629 114.093C252.654 128.295 281.059 84.852 252.654 74.8267Z" fill="#F4C2C9"/>
<path d="M166.325 70.371C162.983 76.2191 171.895 79.8394 183.869 81.2318C195.844 82.6242 201.414 105.46 220.629 114.093C227.312 117.156 233.718 117.434 239.566 116.32" stroke="#E26E85" stroke-width="1.8" stroke-miterlimit="10" stroke-linecap="round" stroke-linejoin="round"/>
<path d="M273.819 62.0162C273.819 62.0162 259.06 71.4846 252.655 74.8264C252.655 74.8264 265.187 87.0796 270.199 109.08C275.212 131.08 271.313 141.662 271.313 141.662C271.313 141.662 287.743 139.991 295.819 134.143C295.819 134.143 303.617 121.333 297.212 96.2694C290.807 71.2062 273.819 62.0162 273.819 62.0162Z" fill="white"/>
<path d="M288.579 120.219C288.579 118.27 287.187 116.877 285.237 116.877C283.288 116.877 281.896 118.27 281.896 120.219C281.896 122.168 283.288 123.561 285.237 123.561C287.187 123.561 288.579 122.168 288.579 120.219Z" fill="#22272E"/>
</svg>
