<svg width="100" height="100" viewBox="0 0 100 100" fill="none" xmlns="http://www.w3.org/2000/svg">
<path d="M94.0511 91.0214L14.6349 99.7407C10.8644 100.212 7.56519 97.3841 7.32953 93.6136L0.966858 11.8409C0.731201 8.07037 3.55909 5.00684 7.09394 4.77119L86.5101 1.00067C90.0449 0.765015 93.1084 3.5929 93.3441 7.12775L99.7068 83.9517C100.178 87.4866 97.5859 90.5501 94.0511 91.0214Z" fill="#FFE779"/>
<path d="M30.8964 26.9229C30.4251 22.4454 27.3616 19.1462 23.5911 19.1462C19.8206 19.3819 17.2284 23.1524 17.4641 27.6299C17.9354 32.1074 20.9989 35.6422 24.7694 35.4065C28.7756 35.1709 31.3677 31.4004 30.8964 26.9229Z" fill="#6DAFA7"/>
<path d="M42.9146 26.2159L80.8552 23.8594" stroke="#22272E" stroke-width="1.8" stroke-miterlimit="10" stroke-linecap="round" stroke-linejoin="round"/>
<path d="M33.0171 52.1384C32.5458 47.6609 29.4823 44.3617 25.7118 44.5973C21.9413 44.833 19.349 48.8392 19.5847 53.3166C20.056 57.7941 23.3552 61.3289 26.89 60.8576C30.6605 60.3863 33.4884 56.6158 33.0171 52.1384Z" fill="#6DAFA7"/>
<path d="M44.7993 51.1956L82.9756 48.1321" stroke="#22272E" stroke-width="1.8" stroke-miterlimit="10" stroke-linecap="round" stroke-linejoin="round"/>
<path d="M35.1377 77.3534C34.6664 72.8759 31.6029 69.5768 27.8324 69.8124C24.0619 70.0481 21.4696 74.0542 21.7053 78.5317C22.1766 83.0091 25.4758 86.3083 29.0106 86.0727C32.7811 85.6014 35.3734 81.8308 35.1377 77.3534Z" fill="#6DAFA7"/>
<path d="M46.9209 76.1749L84.8616 72.4044" stroke="#22272E" stroke-width="1.8" stroke-miterlimit="10" stroke-linecap="round" stroke-linejoin="round"/>
</svg>
