<svg width="134" height="109" viewBox="0 0 134 109" fill="none" xmlns="http://www.w3.org/2000/svg">
<path d="M126.746 102.331L14.1024 108.458C10.5676 108.693 7.50405 105.866 7.26839 102.331L0.669971 7.1256C0.434315 3.3551 3.49789 0.0559082 7.26839 0.0559082L119.912 0.762884C123.447 0.762884 126.275 3.35508 126.51 6.88993L133.109 95.261C133.345 99.0315 130.517 102.095 126.746 102.331Z" fill="#6DAFA7"/>
<path d="M40.0245 38.2321L24.7069 38.4678C23.2929 38.4678 22.1146 37.2895 21.879 35.8756L20.7007 19.8509C20.7007 18.2013 21.879 17.0231 23.5286 17.0231H38.8462C40.2602 17.0231 41.4384 18.2014 41.6741 19.6153L42.8524 35.4043C42.6167 36.8182 41.4385 38.2321 40.0245 38.2321Z" fill="#FFE779"/>
<path d="M56.521 17.0231L109.544 16.7875" stroke="#22272E" stroke-width="1.8" stroke-miterlimit="10" stroke-linecap="round" stroke-linejoin="round"/>
<path d="M57.4634 30.691L110.486 30.2197" stroke="#22272E" stroke-width="1.8" stroke-miterlimit="10" stroke-linecap="round" stroke-linejoin="round"/>
<path d="M42.6168 74.7592L27.2992 75.2305C25.8852 75.2305 24.4713 74.0522 24.4713 72.6383L23.293 56.6136C23.293 54.964 24.4713 53.7858 25.8852 53.7858L41.2029 53.3145C42.6168 53.3145 43.795 54.4927 44.0307 55.9067L45.209 71.6956C45.209 73.3452 44.0308 74.7592 42.6168 74.7592Z" fill="#FFE779"/>
<path d="M59.1133 53.0786L112.136 51.6647" stroke="#22272E" stroke-width="1.8" stroke-miterlimit="10" stroke-linecap="round" stroke-linejoin="round"/>
<path d="M60.0557 66.9825L113.078 65.3329" stroke="#22272E" stroke-width="1.8" stroke-miterlimit="10" stroke-linecap="round" stroke-linejoin="round"/>
</svg>
