<svg width="79" height="90" viewBox="0 0 79 90" fill="none" xmlns="http://www.w3.org/2000/svg">
<path d="M19.5 2L20.3942 10.6144C20.8322 14.8332 24.1668 18.1678 28.3856 18.6058L37 19.5L28.3856 20.3942C24.1668 20.8322 20.8322 24.1668 20.3942 28.3856L19.5 37L18.6058 28.3856C18.1678 24.1668 14.8332 20.8322 10.6144 20.3942L2 19.5L10.6144 18.6058C14.8332 18.1678 18.1678 14.8332 18.6058 10.6144L19.5 2Z" fill="#77E6FF" stroke="#77E6FF" stroke-width="2.35919" stroke-linejoin="round"/>
<path fill-rule="evenodd" clip-rule="evenodd" d="M70.084 29.5265C70.053 29.2273 69.8008 29 69.5 29C69.1992 29 68.947 29.2273 68.916 29.5265L68.4519 33.9975C68.2626 35.8211 66.8211 37.2626 64.9975 37.4519L60.5265 37.916C60.2273 37.947 60 38.1992 60 38.5C60 38.8008 60.2273 39.053 60.5265 39.084L64.9975 39.5481C66.8211 39.7374 68.2626 41.1789 68.4519 43.0025L68.916 47.4735C68.947 47.7727 69.1992 48 69.5 48C69.8008 48 70.053 47.7727 70.084 47.4735L70.5481 43.0025C70.7374 41.1789 72.1789 39.7374 74.0025 39.5481L78.4735 39.084C78.7727 39.053 79 38.8008 79 38.5C79 38.1992 78.7727 37.947 78.4735 37.916L74.0025 37.4519C72.1789 37.2626 70.7374 35.8211 70.5481 33.9975L70.084 29.5265Z" fill="#FFC803"/>
<path fill-rule="evenodd" clip-rule="evenodd" d="M51.084 71.5265C51.053 71.2273 50.8008 71 50.5 71C50.1992 71 49.947 71.2273 49.916 71.5265L49.4519 75.9975C49.2626 77.8211 47.8211 79.2626 45.9975 79.4519L41.5265 79.916C41.2273 79.947 41 80.1992 41 80.5C41 80.8008 41.2273 81.053 41.5265 81.084L45.9975 81.5481C47.8211 81.7374 49.2626 83.1789 49.4519 85.0025L49.916 89.4735C49.947 89.7727 50.1992 90 50.5 90C50.8008 90 51.053 89.7727 51.084 89.4735L51.5481 85.0025C51.7374 83.1789 53.1789 81.7374 55.0025 81.5481L59.4735 81.084C59.7727 81.053 60 80.8008 60 80.5C60 80.1992 59.7727 79.947 59.4735 79.916L55.0025 79.4519C53.1789 79.2626 51.7374 77.8211 51.5481 75.9975L51.084 71.5265Z" fill="#F87388"/>
</svg>
