<svg width="135" height="134" viewBox="0 0 135 134" fill="none" xmlns="http://www.w3.org/2000/svg">
<path d="M122.945 133.394L18.3132 131.509C14.0714 131.509 10.5366 128.21 10.3009 123.968L0.874692 8.73213C0.639036 4.72597 3.93821 1.66245 7.70871 1.89811L112.811 12.9739C116.818 13.4453 119.881 16.5088 120.117 20.5149L129.307 126.325C129.543 130.331 126.715 133.394 122.945 133.394Z" fill="#F8AB5D"/>
<path d="M128.6 131.509L23.9691 129.624C19.7273 129.624 16.1924 126.325 15.9567 122.083L6.53045 6.84675C6.2948 2.8406 9.59404 -0.222922 13.3645 0.012734L118.467 11.0886C122.473 11.5599 125.537 14.6234 125.773 18.6296L134.963 124.439C135.199 128.445 132.135 131.509 128.6 131.509Z" fill="#FFE779"/>
<path d="M52.248 21.4573L107.627 26.6417" stroke="#63737A" stroke-width="1.8" stroke-miterlimit="10" stroke-linecap="round" stroke-linejoin="round"/>
<path d="M53.1904 32.7689L108.57 37.482" stroke="#63737A" stroke-width="1.8" stroke-miterlimit="10" stroke-linecap="round" stroke-linejoin="round"/>
<path d="M55.311 58.6912L110.926 62.4617" stroke="#63737A" stroke-width="1.8" stroke-miterlimit="10" stroke-linecap="round" stroke-linejoin="round"/>
<path d="M56.2534 69.7668L111.633 73.0661" stroke="#63737A" stroke-width="1.8" stroke-miterlimit="10" stroke-linecap="round" stroke-linejoin="round"/>
<path d="M58.6113 95.9247L113.991 98.2812" stroke="#63737A" stroke-width="1.8" stroke-miterlimit="10" stroke-linecap="round" stroke-linejoin="round"/>
<path d="M59.5537 107L114.933 108.886" stroke="#63737A" stroke-width="1.8" stroke-miterlimit="10" stroke-linecap="round" stroke-linejoin="round"/>
<path d="M33.1597 27.8201L35.9875 31.3549L39.9937 25.9348" stroke="#6DAFA7" stroke-width="1.8" stroke-miterlimit="10" stroke-linecap="round" stroke-linejoin="round"/>
<path d="M36.2227 65.5252L39.0506 68.8244L43.2923 63.4043" stroke="#6DAFA7" stroke-width="1.8" stroke-miterlimit="10" stroke-linecap="round" stroke-linejoin="round"/>
<path d="M39.2871 102.523L42.3506 105.822L46.3568 100.167" stroke="#6DAFA7" stroke-width="1.8" stroke-miterlimit="10" stroke-linecap="round" stroke-linejoin="round"/>
</svg>
