<svg width="97" height="64" viewBox="0 0 97 64" fill="none" xmlns="http://www.w3.org/2000/svg">
<path d="M90.6256 61.0336L11.2094 63.8615C7.67455 64.0972 4.61103 61.2693 4.37538 57.7344L0.36919 8.01097C0.133534 4.24047 3.19711 0.941284 6.96761 0.941284L86.3837 1.41259C89.6829 1.41259 92.5108 4.00482 92.9822 7.53967L96.7527 53.964C97.224 57.4988 94.3961 60.798 90.6256 61.0336Z" fill="#F4C2C9"/>
<path d="M30.297 33.4618L18.2785 33.6975C17.5715 33.6975 16.8646 32.9905 16.629 32.2836L15.4507 16.9659C15.4507 16.0233 16.1576 15.3163 17.1002 15.3163H29.1187C29.8257 15.3163 30.5327 16.0233 30.7683 16.7302L31.9466 31.8122C31.9466 32.5192 31.2396 33.4618 30.297 33.4618Z" fill="#22272E"/>
<path d="M41.6089 15.0807H80.9635" stroke="#22272E" stroke-width="1.8" stroke-miterlimit="10" stroke-linecap="round" stroke-linejoin="round"/>
<path d="M42.7871 27.0992L81.9061 26.6279" stroke="#22272E" stroke-width="1.8" stroke-miterlimit="10" stroke-linecap="round" stroke-linejoin="round"/>
<path d="M17.8071 46.6585L83.3196 45.0089" stroke="#22272E" stroke-width="1.8" stroke-miterlimit="10" stroke-linecap="round" stroke-linejoin="round"/>
</svg>
