<svg width="55" height="43" viewBox="0 0 55 43" fill="none" xmlns="http://www.w3.org/2000/svg">
<path fill-rule="evenodd" clip-rule="evenodd" d="M15.3914 0.803655C15.344 0.346983 14.9591 0 14.5 0C14.0409 0 13.656 0.346983 13.6086 0.803655L12.9002 7.6277C12.6113 10.4112 10.4112 12.6113 7.62771 12.9002L0.803655 13.6086C0.346983 13.656 0 14.0409 0 14.5C0 14.9591 0.346983 15.344 0.803655 15.3914L7.6277 16.0998C10.4112 16.3887 12.6113 18.5888 12.9002 21.3723L13.6086 28.1963C13.656 28.653 14.0409 29 14.5 29C14.9591 29 15.344 28.653 15.3914 28.1963L16.0998 21.3723C16.3887 18.5888 18.5888 16.3887 21.3723 16.0998L28.1963 15.3914C28.653 15.344 29 14.9591 29 14.5C29 14.0409 28.653 13.656 28.1963 13.6086L21.3723 12.9002C18.5888 12.6113 16.3887 10.4112 16.0998 7.62771L15.3914 0.803655Z" fill="#FFC803"/>
<path fill-rule="evenodd" clip-rule="evenodd" d="M47.9611 28.4157C47.9365 28.1795 47.7375 28 47.5 28C47.2625 28 47.0635 28.1795 47.0389 28.4157L46.6725 31.9454C46.5231 33.3851 45.3851 34.5231 43.9454 34.6725L40.4157 35.0389C40.1795 35.0635 40 35.2625 40 35.5C40 35.7375 40.1795 35.9365 40.4157 35.9611L43.9454 36.3275C45.3851 36.4769 46.5231 37.6149 46.6725 39.0546L47.0389 42.5843C47.0635 42.8205 47.2625 43 47.5 43C47.7375 43 47.9365 42.8205 47.9611 42.5843L48.3275 39.0546C48.4769 37.6149 49.6149 36.4769 51.0546 36.3275L54.5843 35.9611C54.8205 35.9365 55 35.7375 55 35.5C55 35.2625 54.8205 35.0635 54.5843 35.0389L51.0546 34.6725C49.6149 34.5231 48.4769 33.3851 48.3275 31.9454L47.9611 28.4157Z" fill="#4BE1F4"/>
</svg>
