<svg viewBox="0 0 24 24" fill="none" xmlns="http://www.w3.org/2000/svg">
<path d="M17.55 0.675049H6.44995C4.79995 0.675049 3.44995 2.02505 3.44995 3.67505V22.05C3.44995 22.5375 3.78745 22.9875 4.27495 23.1C4.76245 23.25 5.24995 23.025 5.51245 22.6125L6.82495 20.4375L8.51245 22.875C8.69995 23.175 9.07495 23.3625 9.41245 23.3625C9.78745 23.3625 10.125 23.175 10.3125 22.875L12.0375 20.3625L13.7625 22.875C13.95 23.175 14.325 23.3625 14.6625 23.3625C15 23.3625 15.375 23.175 15.5625 22.875L17.2125 20.4375L18.525 22.65C18.7875 23.0625 19.275 23.2875 19.7625 23.1376C20.25 22.9875 20.5875 22.5751 20.5875 22.0875V3.67505C20.55 2.02505 19.2 0.675049 17.55 0.675049ZM18.8625 19.9501L18.15 18.75C17.9625 18.4125 17.625 18.225 17.25 18.225C16.875 18.225 16.5375 18.4125 16.3125 18.7125L14.625 21.1875L12.9 18.675C12.7125 18.375 12.375 18.1875 12 18.1875C11.625 18.1875 11.2875 18.375 11.1 18.675L9.37495 21.1875L7.68745 18.675C7.46245 18.375 7.12495 18.1875 6.78745 18.1875H6.74995C6.37495 18.1875 6.03745 18.4125 5.84995 18.7125L5.17495 19.875V3.67505C5.17495 2.92505 5.77495 2.36255 6.48745 2.36255H17.55C18.3 2.36255 18.8625 2.96255 18.8625 3.67505V19.9501Z" fill="black"/>
<path d="M15.8624 7.38757H8.1374C7.6874 7.38757 7.2749 7.76257 7.2749 8.25007C7.2749 8.73757 7.6499 9.11257 8.1374 9.11257H15.8624C16.3124 9.11257 16.7249 8.73757 16.7249 8.25007C16.7249 7.76257 16.3124 7.38757 15.8624 7.38757Z" fill="black"/>
<path d="M15.8624 11.25H8.1374C7.6874 11.25 7.2749 11.625 7.2749 12.1125C7.2749 12.5625 7.6499 12.975 8.1374 12.975H15.8624C16.3124 12.975 16.7249 12.6 16.7249 12.1125C16.6874 11.625 16.3124 11.25 15.8624 11.25Z" fill="black"/>
</svg>
