<svg width="24" height="24" viewBox="0 0 24 24" fill="none" xmlns="http://www.w3.org/2000/svg">
<path d="M12 13.8C15.1125 13.8 17.625 11.2875 17.625 8.17505C17.625 5.06255 15.1125 2.55005 12 2.55005C8.8875 2.55005 6.375 5.06255 6.375 8.17505C6.375 11.2875 8.8875 13.8 12 13.8ZM12 4.23755C14.175 4.23755 15.9375 6.00005 15.9375 8.17505C15.9375 10.35 14.175 12.1125 12 12.1125C9.825 12.1125 8.0625 10.35 8.0625 8.17505C8.0625 6.00005 9.825 4.23755 12 4.23755Z" fill="black"/>
<path d="M23.0624 19.95C19.9874 17.3625 16.0874 15.9375 11.9999 15.9375C7.9124 15.9375 4.0124 17.3625 0.937402 19.95C0.599902 20.25 0.524902 20.775 0.824902 21.15C1.1249 21.4875 1.6499 21.5625 2.0249 21.2625C4.7999 18.9 8.3249 17.625 11.9999 17.625C15.6749 17.625 19.1999 18.9 21.9374 21.225C22.0874 21.375 22.2749 21.4125 22.4999 21.4125C22.7249 21.4125 22.9874 21.3 23.1374 21.1125C23.4374 20.775 23.3999 20.25 23.0624 19.95Z" fill="black"/>
</svg>
